<?xml version="1.0" encoding="UTF-8"?>
<svg xmlns="http://www.w3.org/2000/svg" version="1.1" viewBox="0 0 100 68.8">
  <!-- Generator: Adobe Illustrator 28.6.0, SVG Export Plug-In . SVG Version: 1.2.0 Build 709)  -->
  <g>
    <g id="_레이어_1" data-name="레이어_1">
      <g id="_레이어_1-2" data-name="_레이어_1">
        <path fill="#f6be00" d="M98.4,7.8h-4.7V1.6c0-.9-.7-1.6-1.6-1.6h-6.2c-.7,0-1.3.4-1.5,1.1l-1.2,3.6H13.8c-2.2,0-4,1.2-4.9,3.1H1.6c-.5,0-1,.2-1.3.6-.3.4-.4.9-.2,1.4,1.3,3.9,4.4,5.9,6.1,6.8l-1.4,4.8c-.3.8-1.6,3.6-3.2,3.6S0,25.7,0,26.6v3.1c0,.9.7,1.6,1.6,1.6h31.1l-8,32c-.3,1.4-1.6,2.4-3,2.4h-12.2c-1,0-1.9-.4-2.5-1.2-.6-.8-.8-1.7-.6-2.7l6.8-27c.2-.8-.3-1.7-1.1-1.9-.8-.2-1.7.3-1.9,1.1l-6.8,27c-.5,1.9,0,3.8,1.1,5.4,1.2,1.5,3,2.4,4.9,2.4h12.2c2.9,0,5.4-1.9,6.1-4.7l4.7-18.7h14.5c3.5,0,6.5-2.4,7.2-5.8l1.8-8.2h36.2c.9,0,1.6-.7,1.6-1.6v-9.4h4.7c.9,0,1.6-.7,1.6-1.6v-9.4c0-.9-.7-1.6-1.6-1.6h0ZM4.1,11h3.8l-.8,2.6c-.9-.5-2.1-1.3-3-2.6h0ZM51.1,38.8c-.4,2-2.2,3.4-4.2,3.4h-13.8l2.7-10.9h5.2c-.3.7-.4,1.5-.4,2.3,0,2.7,1.8,4.7,2,4.9.3.3.7.5,1.2.5s.7,0,1-.4c.6-.6.7-1.6,0-2.2,0,0-1.2-1.4-1.2-2.9s.4-1.8.8-2.3h8.2l-1.7,7.6h.1ZM90.6,20.3h-39.5l-2.8-8.3c-.2-.6-.8-1.1-1.5-1.1h-25c-.5,0-1,.2-1.3.6-.3.4-.4.9-.2,1.4l2.4,7.3h-10.3c-.9,0-1.6.7-1.6,1.6s.7,1.6,1.6,1.6h78.1v4.7H3.1v-.3c3-1.1,4.4-5,4.6-5.5h0l3.9-12.8c.3-1,1.2-1.7,2.2-1.7h70.5c.7,0,1.3-.4,1.5-1.1l1.2-3.6h3.6v17.2h0ZM47.8,20.3h-3l-2.1-6.2h3l2.1,6.2ZM41.6,20.3h-3l-2.1-6.2h3l2.1,6.2ZM35.3,20.3h-3l-2.1-6.2h3l2.1,6.2ZM29.1,20.3h-3l-2.1-6.2h3l2.1,6.2ZM96.9,17.2h-3.1v-6.2h3.1v6.2Z"/>
        <path fill="#f6be00" d="M10.1,61.9c.3.4.8.6,1.2.6h9c.7,0,1.3-.5,1.5-1.2l6.2-25c0-.5,0-1-.3-1.3-.3-.4-.8-.6-1.2-.6h-9c-.7,0-1.3.5-1.5,1.2l-6.2,25c-.1.5,0,1,.3,1.3ZM18.8,37.5h5.8l-5.5,21.9h-5.8l5.5-21.9Z"/>
        <path fill="#f6be00" d="M85.9,14.1h-28.1c-.9,0-1.6.7-1.6,1.6s.7,1.6,1.6,1.6h28.1c.9,0,1.6-.7,1.6-1.6s-.7-1.6-1.6-1.6Z"/>
      </g>
    </g>
  </g>
</svg>