<?xml version="1.0" encoding="UTF-8"?>
<svg xmlns="http://www.w3.org/2000/svg" version="1.1" viewBox="0 0 75 91.6">
  <!-- Generator: Adobe Illustrator 28.6.0, SVG Export Plug-In . SVG Version: 1.2.0 Build 709)  -->
  <g>
    <g id="_레이어_1" data-name="레이어_1">
      <path fill="#f6be00" d="M74.4.2c-.4-.2-.9-.3-1.3,0C49.4,11,25.6,11,2,.1c-.4-.2-.9-.2-1.3,0-.4.2-.6.7-.6,1.2v44.4c0,24.6,22,42.7,37.2,45.8h.6c15.2-3.1,37.2-21.2,37.2-45.8V1.4c0-.5-.2-.9-.6-1.2h0ZM72.2,45.8c0,24.9-22.8,40.4-34.7,43-11.9-2.6-34.7-18.2-34.7-43V3.5c23.1,10.1,46.4,10.1,69.4,0v42.3ZM13.2,44.7s-.2-.1-.3-.2c0,0-.2,0-.3,0s-.1,0-.2,0h0c-.1,0-.2,0-.3,0,0,0-.1,0-.2,0,0,0-.1,0-.2.1,0,0-.2.1-.2.2h0c0,0,0,.1,0,.2,0,0-.1.2-.2.3,0,0,0,.2,0,.3s0,.1,0,.2h0c0,18.4,15.9,30.8,25.9,34.2.1,0,.3,0,.4,0s.3,0,.4,0c10-3.5,25.9-15.8,25.9-34.1h0c0-.1,0-.2,0-.3,0-.1,0-.2,0-.3,0,0,0-.2-.1-.2,0,0,0-.1-.1-.2h0c0,0-.2-.1-.2-.2,0,0-.1-.1-.2-.1,0,0-.1,0-.2,0-.1,0-.2,0-.3,0h0c0,0-.1,0-.2,0-.1,0-.2,0-.3,0,0,0-.2,0-.2.1,0,0-.1,0-.2.1-16.2,14.4-31.9,14.4-48.2,0,0,0-.1,0-.2-.1h0ZM60.9,48.9c-1.6,15-14.7,25.1-23.4,28.4-8.7-3.2-21.8-13.4-23.4-28.4,7.8,6.2,15.6,9.4,23.4,9.4s15.7-3.2,23.4-9.4ZM13.9,31.9c0-5.4,4.4-9.7,9.7-9.7s9.7,4.4,9.7,9.7-.6,1.4-1.4,1.4-1.4-.6-1.4-1.4c0-3.8-3.1-6.9-6.9-6.9s-6.9,3.1-6.9,6.9-.6,1.4-1.4,1.4-1.4-.6-1.4-1.4h0ZM41.7,31.9c0-5.4,4.4-9.7,9.7-9.7s9.7,4.4,9.7,9.7-.6,1.4-1.4,1.4-1.4-.6-1.4-1.4c0-3.8-3.1-6.9-6.9-6.9s-6.9,3.1-6.9,6.9-.6,1.4-1.4,1.4-1.4-.6-1.4-1.4h0Z"/>
    </g>
  </g>
</svg>