<?xml version="1.0" encoding="UTF-8"?>
<svg xmlns="http://www.w3.org/2000/svg" version="1.1" viewBox="0 0 87.5 93.8">
  <!-- Generator: Adobe Illustrator 28.6.0, SVG Export Plug-In . SVG Version: 1.2.0 Build 709)  -->
  <g>
    <g id="_레이어_1" data-name="레이어_1">
      <g id="_레이어_1-2" data-name="_레이어_1">
        <g>
          <path fill="#f6be00" d="M43.5,43.9c-2-4.1-5.4-7.5-9.5-9.5-.8-.4-1.7,0-2.1.7-.4.8,0,1.7.7,2.1,3.5,1.7,6.4,4.6,8.1,8.1.9,1.8,3.7.4,2.8-1.4h0Z"/>
          <path fill="#f6be00" d="M44.4,71.2c5.3-4.9,8.7-11.8,8.7-19.6C51.6,16.4,1.4,16.4,0,51.6c-.3,17.6,17.8,30.8,34.4,25.4l12.3,16.2c.3.4.8.6,1.2.6s.6,0,.9-.3l6.7-5c.7-.5.8-1.5.3-2.2l-11.5-15.1h0ZM3.1,51.6c0-12.9,10.5-23.4,23.4-23.4,31.1,1.3,31.1,45.6,0,46.9-12.9,0-23.4-10.5-23.4-23.4h0ZM48.2,90l-10.8-14.3c1.6-.7,3.1-1.6,4.6-2.7l10.4,13.8-4.2,3.1h0Z"/>
          <path fill="#f6be00" d="M87.2,22.6c-.3-.5-.8-.7-1.3-.7h-5.1l-4.9-17.6c-.9-3.8-5.8-5.6-9-3.3l-5.6,3.7c-1.2.8-2.9.8-4.1,0l-5.6-3.7c-3.2-2.2-8-.4-9,3.3l-5.1,18.3c-.3.9.4,2,1.4,1.9.3.3.7.5,1.1.5h43.3l-2.9,6.3h-29c-2,0-2.1,3.1,0,3.1h23.4v3.1c0,9.1-8.1,16.5-17.2,15.5-2-.2-2.4,2.8-.3,3.1,10.9,1.2,20.7-7.7,20.6-18.6v-3.1h3.4c.6,0,1.2-.3,1.4-.9l4.4-9.4c.2-.5.2-1.1,0-1.5h0ZM45.7,5.2c.4-1.8,2.8-2.6,4.2-1.6l5.6,3.7c2.3,1.5,5.2,1.5,7.5,0l5.6-3.7c.8-.5,1.7-.6,2.5-.3.8.3,1.5,1,1.7,1.8l4.6,16.7h-36.5l4.6-16.7h.2Z"/>
        </g>
      </g>
    </g>
  </g>
</svg>