<?xml version="1.0" encoding="UTF-8"?>
<svg xmlns="http://www.w3.org/2000/svg" version="1.1" viewBox="0 0 20.8 21.2">
  <defs>
    <style>
      .cls-1 {
        fill-rule: evenodd;
      }
    </style>
  </defs>
  <!-- Generator: Adobe Illustrator 28.6.0, SVG Export Plug-In . SVG Version: 1.2.0 Build 709)  -->
  <g>
    <g id="_레이어_1" data-name="레이어_1">
      <g id="_레이어_1-2" data-name="_레이어_1">
        <path fill="#f6be00" class="cls-1" d="M9.2,7.6c.2-.2.5-.2.7,0,1.5,1.1,2.6,2.8,3,4.9.8,4-1.3,7.9-4.9,8.6-3.6.7-7-2.1-7.8-6-.4-2.1,0-4.1.9-5.6,0-.2.4-.3.6-.2,1.2.5,2.6.7,4,.4,1.4-.3,2.6-1,3.6-1.9v-.2ZM9.6,8.6c-1,.9-2.3,1.6-3.8,1.9-1.5.3-2.9.2-4.2-.3-.7,1.3-.9,2.9-.6,4.6.7,3.6,3.8,5.8,6.7,5.3,2.9-.6,4.8-3.9,4.1-7.4-.3-1.7-1.2-3.1-2.3-4h0Z"/>
        <path fill="#f6be00" class="cls-1" d="M5.5,16.3c.2.8,1,1.3,1.8,1.2.8-.2,1.3-1,1.2-1.8l1-.2c.3,1.4-.6,2.7-2,2.9-1.4.3-2.7-.6-2.9-2l1-.2h0Z"/>
        <path fill="#f6be00" class="cls-1" d="M10,12.4l-1.9.9-.4-.9,1.9-.9.4.9Z"/>
        <path fill="#f6be00" class="cls-1" d="M4.9,13.9h-2.1v-1.1h2.1v1.1Z"/>
        <path fill="#f6be00" class="cls-1" d="M18.1.2c.2-.1.5-.1.7,0,1.2,1.4,2,3.3,2,5.4,0,3.6-2.3,6.8-5.4,7.4l-.2-1c2.6-.5,4.6-3.1,4.6-6.4s-.6-3.2-1.4-4.4c-1.2.7-2.6,1.1-4.1,1.1s-2.9-.4-4.1-1.1c-.9,1.1-1.4,2.7-1.4,4.4h-1c0-2.1.8-4,2-5.4.2-.2.4-.2.7,0,1.1.7,2.4,1.2,3.9,1.2s2.8-.4,3.9-1.2h-.2Z"/>
        <path fill="#f6be00" class="cls-1" d="M14.2,8.1c.8,0,1.5.7,1.5,1.5h1c0-1.4-1.1-2.5-2.5-2.5s-1,.2-1.4.5l.6.8c.2-.2.5-.3.9-.3h-.1Z"/>
        <path fill="#f6be00" class="cls-1" d="M17.8,4.6l-2-.5-.2,1,2,.5.2-1Z"/>
        <path fill="#f6be00" class="cls-1" d="M12.6,4.1l-2,.5.2,1,2-.5-.2-1Z"/>
      </g>
    </g>
  </g>
</svg>