<?xml version="1.0" encoding="UTF-8"?>
<svg xmlns="http://www.w3.org/2000/svg" version="1.1" viewBox="0 0 93.9 59.4">
  <!-- Generator: Adobe Illustrator 28.6.0, SVG Export Plug-In . SVG Version: 1.2.0 Build 709)  -->
  <g>
    <g id="_레이어_1" data-name="레이어_1">
      <g id="_레이어_1-2" data-name="_레이어_1">
        <g>
          <path fill="#f6be00" d="M92.2,0h-6.2c-.9,0-1.6.7-1.6,1.6v4.7h-4.7V1.6c0-.9-.7-1.6-1.6-1.6h-6.2c-.9,0-1.6.7-1.6,1.6v4.7h-4.7V1.6c0-.9-.7-1.6-1.6-1.6h-6.2c-.9,0-1.6.7-1.6,1.6v12.5c0,.9.7,1.6,1.6,1.6h4.7v42.2c0,.9.7,1.6,1.6,1.6h21.9c.9,0,1.6-.7,1.6-1.6V15.7h4.7c.9,0,1.6-.7,1.6-1.6V1.6c0-.9-.7-1.6-1.6-1.6h-.1ZM76.6,50h-1.6v-6.2h9.4v6.2h-7.8ZM84.4,25v6.2h-9.4v-6.2h9.4ZM65.6,40.6v-6.2h9.4v6.2h-9.4ZM75,21.9h-9.4v-6.2h9.4v6.2ZM65.6,56.3v-3.1h9.4v3.1h-9.4ZM90.6,12.5h-31.2V3.1h3.1v4.7c0,.9.7,1.6,1.6,1.6h7.8c.9,0,1.6-.7,1.6-1.6V3.1h3.1v4.7c0,.9.7,1.6,1.6,1.6h7.8c.9,0,1.6-.7,1.6-1.6V3.1h3.1v9.4h0Z"/>
          <path fill="#f6be00" d="M36,15.6c.9,0,1.6-.7,1.6-1.6V1.5c0-.9-.7-1.6-1.6-1.6h-6.2c-.9,0-1.6.7-1.6,1.6v4.7h-4.7V1.5c0-.9-.7-1.6-1.6-1.6h-6.2c-.9,0-1.6.7-1.6,1.6v4.7h-4.7V1.5c0-.9-.7-1.6-1.6-1.6H1.6C.7,0,0,.6,0,1.5v12.5c0,.9.7,1.6,1.6,1.6h4.7v42.2c0,.9.7,1.6,1.6,1.6h21.9c.9,0,1.6-.7,1.6-1.6V15.6h4.7-.1ZM3.1,3.1h3.1v4.7c0,.9.7,1.6,1.6,1.6h7.8c.9,0,1.6-.7,1.6-1.6V3.1h3.1v4.7c0,.9.7,1.6,1.6,1.6h7.8c.9,0,1.6-.7,1.6-1.6V3.1h3.1v9.4H3.1V3.1ZM28.1,34.4v6.2h-9.4v-6.2h9.4ZM9.4,50v-6.2h9.4v6.2h-9.4ZM18.8,31.3h-9.4v-6.2h9.4v6.2ZM28.1,56.3h-9.4v-3.1h9.4v3.1ZM28.1,21.9h-9.4v-6.2h9.4v6.2Z"/>
          <path fill="#f6be00" d="M57.8,56.3h-3.1v-4.7c0-4.3-3.5-7.8-7.8-7.8s-7.8,3.5-7.8,7.8v4.7h-3.1c-.9,0-1.6.7-1.6,1.6s.7,1.6,1.6,1.6h21.9c.9,0,1.6-.7,1.6-1.6s-.7-1.6-1.6-1.6h-.1Z"/>
          <path fill="#f6be00" d="M57.8,25h-3.8c-.9,0-1.6.7-1.6,1.6v4.7h-11.2v-4.7c0-.9-.7-1.6-1.6-1.6h-3.8c-.9,0-1.6.7-1.6,1.6s.7,1.6,1.6,1.6h2.2v4.7c0,.9.7,1.6,1.6,1.6h14.3c.9,0,1.6-.7,1.6-1.6v-4.7h2.2c.9,0,1.6-.7,1.6-1.6s-.7-1.6-1.6-1.6h0Z"/>
          <path fill="#f6be00" d="M57.8,37.5h-21.9c-.9,0-1.6.7-1.6,1.6s.7,1.6,1.6,1.6h21.9c.9,0,1.6-.7,1.6-1.6s-.7-1.6-1.6-1.6Z"/>
        </g>
      </g>
    </g>
  </g>
</svg>