<?xml version="1.0" encoding="UTF-8"?>
<svg xmlns="http://www.w3.org/2000/svg" version="1.1" viewBox="0 0 66.1 96.6">
  <!-- Generator: Adobe Illustrator 28.6.0, SVG Export Plug-In . SVG Version: 1.2.0 Build 709)  -->
  <g>
    <g id="_레이어_1" data-name="레이어_1">
      <g id="_레이어_1-2" data-name="_레이어_1">
        <path stroke="#f6be00" stroke-width="2" d="M63.5,61.8c-2.4-12.7-5.1-25.6-7.7-38.1C53.5,12.4,45.8.5,33.1,0,20.5.5,12.8,12.4,10.4,23.7c-2.6,12.5-5.2,25.4-7.7,38.1-1.8,9.5-6.4,23.7,3.1,30.9,4,3,9.9,2.7,14.2.7.5-.2,1-.5,1.5-.8-3.9.8-7.5-.5-10.2-3.7-5.7-6.8-5.5-15.8-4.8-24.4.5-6.1,1.9-12.1,3.3-17.9.5-2.2,1.1-4.5,1.6-6.8.3-1.3.5-2.6.7-4.1.7-4.7,1.5-9.5,4.8-13.1,2.5-2.7,6.2-4.6,10.6-5.5,2.1-.4,3.7-.6,5.6-.6s3.5.1,5.6.6c4.5.9,8.2,2.8,10.6,5.5,3.3,3.6,4.1,8.4,4.8,13.1.2,1.4.4,2.8.7,4,.5,2.3,1,4.6,1.6,6.8,1.4,5.8,2.8,11.8,3.3,17.9.7,8.6.9,17.6-4.8,24.4-2.2,2.6-4.9,3.9-8,3.9s-1.5,0-2.3-.3c.5.3,1,.6,1.5.8,4.3,2,10.2,2.3,14.2-.7,9.5-7.2,4.9-21.4,3.1-30.9h0v.2ZM54.2,88.3c5.5-6.5,5.3-15.3,4.6-23.7-.5-6-1.9-12-3.3-17.7-.2-.7-.3-1.4-.5-2.1-.2-.9-.4-1.8-.6-2.7,0-.7-.3-1.3-.4-2-.3-1.3-.5-2.7-.7-4.1-.4-2.6-.9-5.3-1.8-7.8-.6-1.7-1.5-3.4-2.8-4.8-2.9-3.2-7.1-4.6-10.1-5.2-1.7-.3-3.2-.6-5.4-.5h0c-2.1,0-3.7.2-5.4.5-3,.6-7.2,2-10.1,5.2-1.3,1.4-2.1,3-2.8,4.8-.9,2.5-1.3,5.1-1.8,7.8-.2,1.4-.4,2.8-.7,4.1,0,.7-.3,1.3-.4,2-.2.9-.4,1.8-.6,2.7-.2.7-.3,1.4-.5,2.1-1.4,5.7-2.8,11.7-3.3,17.7-.7,8.4-.9,17.2,4.6,23.7,3.1,3.8,7.7,4.5,12.6,2.2,0,0,.4-.3.8-.6.2.7.4,1.4.7,2.1,1.4,3,4,4.9,6.8,4.9h.2c2.9,0,5.4-1.9,6.9-4.9.3-.7.6-1.4.7-2.1.3.2.6.5.8.6,4.9,2.4,9.4,1.6,12.6-2.2h0ZM38.8,81l-.4,5.4c0,.7,0,1.3-.2,2,0,.8-.3,1.6-.7,2.4-.9,2-2.4,3.1-4.2,3.2h0c-1.7,0-3.2-1.2-4.2-3.2s-.6-1.6-.7-2.4c0-.6-.2-1.3-.2-2l-.4-5.4c0-1.1-.2-2.1-.4-3.1s-.5-1.9-.8-2.9l-.2-.6c-.8-2.5-1.3-5.2-2.3-7.7-.9-2.3-2-4.5-3-6.7s-1-2.4-.6-3.5c.4-1,1.3-1.9,2.1-2.7h-1.4c-1.4,0-2.8-.3-4-1.1-1.2-.9-2.2-2.9-2.5-4.4-.4-1.8,0-4.1.6-5.8.6-1.4,1.4-2.7,1.7-4.2.6-2.7.7-5.5.9-8.2.2-2.1.7-3.8,2.2-5.3s1.3-1,2.1-1.5c3.4-1.9,7.2-2.8,11.1-2.8h.2c3.8,0,7.7.9,11.1,2.8.7.4,1.5.9,2.1,1.5,1.6,1.5,2,3.2,2.2,5.3.3,2.7.3,5.5.9,8.2.3,1.5,1.2,2.8,1.7,4.2.7,1.7,1,4,.6,5.8-.3,1.5-1.2,3.5-2.5,4.4-1.1.8-2.6,1.1-4,1.1h-1.4c.8.7,1.7,1.6,2.1,2.7s0,2.4-.6,3.5c-1,2.3-2.1,4.5-3,6.7-1,2.5-1.6,5.1-2.3,7.7l-.2.6c-.3,1-.6,2-.8,2.9-.2,1-.3,2-.4,3.1h-.2ZM29.5,42.9c.4-1.3.7-2.6,1-3.9.3-1.4.7-3.1.4-4.5,0-.4-.3-.8-.7-1s-1,0-1.4,0c-.9.4-1.5,1.1-2.1,1.9-.8,1.2-1.5,2.3-2.4,3.3s-2,1.8-3,2.7c-1.7,1.5-4.2,2.6-4.4,5.1,0,1.1.2,2.3,1,3.1s2.1.9,3.2.8c2.2,0,4-.9,5.5-2.6,1.3-1.5,2.2-3.3,2.9-5.2h0v.3ZM36.9,42.9c.6,1.9,1.5,3.7,2.9,5.2,1.5,1.6,3.3,2.4,5.5,2.6,1.1,0,2.4,0,3.2-.8.8-.8,1.2-2,1-3.1-.3-2.5-2.7-3.6-4.4-5.1-1-.9-2-1.7-3-2.7s-1.7-2.2-2.4-3.3c-.6-.8-1.2-1.6-2.1-1.9-.4-.2-1-.3-1.4,0-.4.2-.6.6-.7,1-.4,1.4,0,3.1.4,4.5.2,1.3.6,2.6,1,3.9h0v-.3ZM29.6,54.2c.3.8,1.2,1.4,2,1,.6-.3.9-1,1.6-1.1.6,0,1,.8,1.6,1.1.8.4,1.7-.2,2-1,.5-1.3-.7-2.5-1.6-3.2-.2-.2-.5-.4-.8-.5-.4-.2-.8-.4-1.3-.4s-.9,0-1.3.4c-.3,0-.5.3-.8.5-.9.7-2.1,2-1.6,3.2h.2ZM36.4,61.2c-1-.5-2.1-.8-3.2-.8s-2.2.2-3.2.8c-2,1.1-3.1,3.2-3.4,5.4-.4,2.5.2,5,1,7.3.4,1.2.8,2.4,1,3.6.3,1.3.4,2.5.5,3.8,0,1.6.3,3.3.4,4.9,0,.4,0,.7,0,1.1,0,1,.3,1.9.7,2.8.5,1.2,1.5,2.3,2.9,2.3s2.3-1.2,2.9-2.3c.4-.9.6-1.8.7-2.8,0-.4,0-.7,0-1.1,0-1.6.3-3.3.4-4.9,0-1.3.2-2.5.5-3.8.3-1.2.7-2.4,1-3.6.7-2.4,1.4-4.8,1-7.3-.4-2.2-1.4-4.3-3.4-5.4h0Z"/>
      </g>
    </g>
  </g>
</svg>