<?xml version="1.0" encoding="UTF-8"?>
<svg xmlns="http://www.w3.org/2000/svg" version="1.1" viewBox="0 0 94 68.8">
  <!-- Generator: Adobe Illustrator 28.6.0, SVG Export Plug-In . SVG Version: 1.2.0 Build 709)  -->
  <g>
    <g id="_레이어_1" data-name="레이어_1">
      <g id="_레이어_1-2" data-name="_레이어_1">
        <g>
          <path fill="#f6be00" d="M89.1,18.7c-7.5-7-18.4-5.7-24.9,1.9l-2-1.9c-6.6-6.4-17.9-6-23.9,1-1.2,1.6,1.2,3.5,2.5,1.9,4.9-5.6,13.9-5.8,19.3-.7l3,2.9c.6.6,1.6.6,2.2,0l3.1-2.9c7.8-7.8,22.5-2.5,22.4,8.9,0,3.3-1.4,6.5-3.8,8.9l-11.9,11.5c-2.1-12-19.6-11.8-21.6,0l-1.3-1.2c-1.5-1.4-3.6.8-2.2,2.3l13,12.5c.4.4.9.5,1.4.4.4,0,.8-.2,1.1-.4l23.7-22.8c6.3-5.9,6.3-16.4,0-22.2h0ZM72,53l-7.8,7.5-7.8-7.5c-.9-11.5,16.4-11.6,15.6,0Z"/>
          <path fill="#f6be00" d="M27.1,18.3c.6.6,1.7.6,2.3,0l7.9-7.6c5.9-6.1-2.9-14.4-9-9-3.8-3.8-11.1-.9-10.9,4.5,0,1.7.7,3.3,1.9,4.5l7.9,7.6h-.1ZM21.4,4.1c1.3-1.3,3.4-1.3,4.8,0l1,1c.6.6,1.6.6,2.2,0l1-1c1.3-1.3,3.4-1.3,4.8,0,1.3,1.2,1.3,3.2,0,4.4l-6.9,6.6-6.9-6.6c-1.3-1.2-1.3-3.2,0-4.4h0Z"/>
          <path fill="#f6be00" d="M70.4,32.8c-.3-8.3-12.2-8.3-12.5,0,.3,8.3,12.2,8.3,12.5,0ZM61.1,32.8c0-4.1,6.1-4.1,6.2,0,0,4.1-6.1,4.1-6.2,0Z"/>
          <path fill="#f6be00" d="M46.1,29.1c-6.1-6.1-15.6-5-21,1.4-5.3-6.5-14.9-7.5-21-1.4-5.4,5.4-5.4,14.1,0,19.5l19.7,19.7c.6.6,1.8.6,2.5,0l19.7-19.7c5.4-5.4,5.4-14.1,0-19.5h0ZM25.1,65.1l-6.1-6.1c.6-7.6,11.6-7.9,12.5-.3l-6.4,6.4ZM43.9,46.4l-9.8,9.8c-3-8.3-15-7.9-17.7.3l-10-10c-9.6-10.4,4.8-24.7,15.1-15.1l2.5,2.5c.6.6,1.6.6,2.2,0l2.5-2.5c10.4-9.6,24.7,4.7,15.1,15.1h0Z"/>
          <path fill="#f6be00" d="M25.1,36c-8.3.3-8.3,12.2,0,12.5,8.3-.3,8.3-12.2,0-12.5ZM25.1,45.3c-4.1,0-4.1-6.1,0-6.2,4.1,0,4.1,6.1,0,6.2Z"/>
        </g>
      </g>
    </g>
  </g>
</svg>