<?xml version="1.0" encoding="UTF-8"?>
<svg xmlns="http://www.w3.org/2000/svg" version="1.1" viewBox="0 0 96 81.6">
  <defs>
    <style>
      .cls-1 {
        fill: none;
      }

      .cls-2 {
        stroke: #000;
        stroke-miterlimit: 10;
      }

      .cls-3 {
        fill-rule: evenodd;
      }
    </style>
  </defs>
  <!-- Generator: Adobe Illustrator 28.6.0, SVG Export Plug-In . SVG Version: 1.2.0 Build 709)  -->
  <g>
    <g id="_레이어_1" data-name="레이어_1">
      <g id="_레이어_1-2" data-name="_레이어_1">
        <circle stroke-width="2" stroke="#f6be00" cx="47.9" cy="3.8" r="3.8"/>
        <rect fill="#f6be00" x="47" y="4.9" width="2" height="7"/>
        <g>
          <line fill="#f6be00" class="cls-1" x1="29.4" y1="49.7" x2="23.9" y2="77.2"/>
          <polygon fill="#f6be00" points="30.3 49.9 23.9 77.2 28.4 49.5 30.3 49.9"/>
        </g>
        <g>
          <line fill="#f6be00" class="cls-1" x1="67.6" y1="48.8" x2="74.1" y2="77.2"/>
          <polygon fill="#f6be00" points="68.6 48.6 74.1 77.2 66.7 49 68.6 48.6"/>
        </g>
        <ellipse fill="#f6be00" class="cls-2" cx="49" cy="77.7" rx="24" ry="3.2"/>
        <path stroke-width="2" stroke="#f6be00" class="cls-3" d="M68.9,31.5v-1.6c0-10.5-9.4-19-20.9-19s-2.3.2-3.4.4c-1.1.2-2.2.4-3.3.7-2.1.6-4.1,1.5-5.8,2.8-1.8,1.2-3.3,2.7-4.6,4.3-1.3,1.6-2.3,3.5-2.8,5.4-.6,2.1-.7,4.3-.8,6.5,0,.2-.1.6,0,.8.4.7,1.5,1,2.3,1.1,1,.2,2,.3,3.1.5,3,.4,6.1.6,9.2.7,2.1,0,4.2,0,6.3,0,3.4,0,6.8,0,10.2-.3,2.5-.2,5-.5,7.4-.8.4,0,.9,0,1.3-.3.5-.2,1.6-.3,1.8-.9,0,0,0-.2,0-.4Z"/>
        <path stroke-width="2" stroke="#f6be00" class="cls-3" d="M70.6,26.4c.6,1.9.9,3.8.9,5.9s0,1.2,0,1.8,0,.3,0,.4c-.3.6-1.4.8-2,1-.5.2-1,.2-1.5.3-2.8.4-5.6.7-8.4,1-3.8.3-7.7.4-11.5.4s-4.7,0-7.1,0c-3.5,0-6.9-.3-10.3-.8-1.1-.2-2.3-.3-3.5-.5-.9-.2-2.2-.5-2.6-1.3s0-.7,0-.9c0-2.4.2-4.7.8-7C10.2,28.9,0,33.4,0,38.5c0,7.5,21.5,13.5,48,13.5s48-6.1,48-13.5-10.3-9.7-25.3-11.9v-.2Z"/>
      </g>
    </g>
  </g>
</svg>