<?xml version="1.0" encoding="UTF-8"?>
<svg xmlns="http://www.w3.org/2000/svg" version="1.1" viewBox="0 0 90.7 100">
  <!-- Generator: Adobe Illustrator 28.6.0, SVG Export Plug-In . SVG Version: 1.2.0 Build 709)  -->
  <g>
    <g id="_레이어_1" data-name="레이어_1">
      <g id="_레이어_1-2" data-name="_레이어_1">
        <path fill="#f6be00" d="M90.7,1.5c0-.6-.4-1.2-1-1.4S88.3,0,88,.4L.5,87.9c-.6.6-.6,1.6,0,2.2l9.4,9.4c.3.3.7.5,1.1.5s.8-.2,1.1-.5l25-25c.6-.6.6-1.6,0-2.2s-1.6-.6-2.2,0l-23.9,23.9-7.2-7.2,25.9-25.9,17.6,17.6c.3.3.7.5,1.1.5s.8-.2,1.1-.5l28.1-28.1c13-13,13-36.8,13-51.1h.1ZM87.5,5.2c0,5.5-.2,11.9-1.1,18.4-9.4,3.8-12,10.9-13.9,16.2-.7,1.8-1.2,3.4-2,4.5-3.2,4.8-5.3,5.6-13.1,7.1-6.7,1.3-7.6,9-8.2,14.1-.2,1.6-.4,3.3-.7,3.9-.8,1.5-3.9,2.1-5.8,2.2l-10.9-10.9L87.5,5.2ZM48.4,77.4l-2.8-2.8c2.2-.4,4.7-1.4,5.8-3.6.6-1.1.8-2.8,1-5,.7-5.7,1.6-10.5,5.7-11.4,8-1.6,11.2-2.7,15.1-8.5.9-1.4,1.6-3.2,2.3-5.2,1.7-4.6,3.7-10.2,10.4-13.6-1.5,8.7-4.6,17.2-10.4,23l-27,27h0Z"/>
        <path fill="#f6be00" d="M76.5,59.3c-.6,0-1.1.3-1.4.8-.8,1.5-4.9,8.9-4.9,11.7s2.8,6.2,6.2,6.2,6.2-2.8,6.2-6.2-4.1-10.2-4.9-11.7c-.3-.5-.8-.8-1.4-.8h.2ZM76.5,74.9c-1.7,0-3.1-1.4-3.1-3.1s1.5-4.4,3.1-7.6c1.7,3.2,3.1,6.6,3.1,7.6,0,1.7-1.4,3.1-3.1,3.1Z"/>
        <path fill="#f6be00" d="M64.2,71.8c-.5,0-1,.3-1.3.7-.7,1-6.5,9.9-6.5,14.9s3.5,7.8,7.8,7.8,7.8-3.5,7.8-7.8-5.8-13.9-6.5-14.9c-.3-.4-.8-.7-1.3-.7ZM64.2,92.1c-2.6,0-4.7-2.1-4.7-4.7s2.7-7.9,4.7-11.1c2,3.2,4.7,8.4,4.7,11.1s-2.1,4.7-4.7,4.7Z"/>
      </g>
    </g>
  </g>
</svg>